<?xml version="1.0" encoding="UTF-8"?>
<svg version="1.1" viewBox="0 0 852 808" width="213" height="202" xmlns="http://www.w3.org/2000/svg">
<path transform="translate(0)" d="m0 0h852v808h-852z" fill="#FDFDFD"/>
<path transform="translate(169,122)" d="m0 0h530l12 1 3 3 1 129v98l-1 183-1 2h-2v2l-3 1h-546l-4-4-1-4-1-104v-248l1-54 3-4z" fill="#FDFDFD"/>
<path transform="translate(370,285)" d="m0 0 6 1 8 7 8 9 11 14 11 13 11 14 9 11 39 48 8 10 4 3 10-13 14-17 13-16 9-11 8-10 3-2 6-1 8 5 9 11 13 16 9 11 11 14 14 17 8 10 13 16 11 14 8 10v8l-5 5h-426l-5-8 1-5 11-14 13-16 18-22 26-32 9-11 26-32 11-14 11-13 11-14 11-13z" fill="#7E8189"/>
<path transform="translate(160,105)" d="m0 0h552l8 4 7 7 3 5 1 4v413l-4 9-7 7-10 4h-551l-8-4-7-6-4-8-1-7v-398l1-12 5-10 8-6zm9 17-9 1-3 4-1 54v248l1 104 3 7 2 1h546l3-1v-2h2l1-2 1-183v-98l-1-129-3-3-12-1z" fill="#7E8189"/>
<path transform="translate(371,306)" d="m0 0 6 5 10 13 9 11 11 13 11 14 28 34 11 14 14 17 13 16 11 14 4 5v2l-10 1h-244v-3l13-16 7-9 14-17 9-11 11-14 11-13 11-14 14-17 8-10 9-11 13-16z" fill="#FDFDFD"/>
<path transform="translate(156,79)" d="m0 0h513l16 1 10 6 7 9-1 2h-414l-140 1-9 3-5 5-3 7-1 16v402l-5-2-8-7-4-5-1-4v-407l2-10 5-8 7-6 5-2z" fill="#7E8189"/>
<path transform="translate(546,367)" d="m0 0 5 5 11 13 11 14 11 13 11 14 13 16 11 13 6 9-12 1h-89l-5-5-11-13-12-16 1-4 10-11 11-14 9-11 8-10z" fill="#FDFDFD"/>
<path transform="translate(238,620)" d="m0 0h21l9 3 10 6 7 8 6 12 2 11v12l-3 14-7 12-9 8-8 4-9 2h-16l-13-4-8-5-8-9-5-10-2-9v-20l5-15 7-9 9-7 7-3z" fill="#7E8189"/>
<path transform="translate(524,168)" d="m0 0h16l13 4 11 8 9 12 4 10 1 5v14l-4 12-6 9-9 9-12 6-11 2h-9l-9-2-13-7-9-9-6-11-2-5-1-7v-8l2-10 7-14 7-8 11-7z" fill="#7E8189"/>
<path transform="translate(395,621)" d="m0 0h18l4 9 12 46 2 3 8-29 7-25 3-4h18l6 3 1 3v79l-3 5-1 1h-8l-4-3-1-3v-60l-5 15-10 40-5 10-3 2-8-1-5-5-6-21-9-36-3-3 1 36-1 25-3 4h-8l-4-2-1-3v-81l1-3z" fill="#7E8189"/>
<path transform="translate(116,620)" d="m0 0h9l7 8 10 16 22 33 3 5 1-57 4-5h9l3 3 1 9v68l-2 9-3 3h-8l-7-4-12-17-10-16-16-24v17l-1 39-2 4-8 1-5-2-2-3v-79l3-5z" fill="#7E8189"/>
<path transform="translate(530,619)" d="m0 0 9 1 4 5 9 21 11 27 10 26 1 8-4 4-3 1h-7l-7-14-2-8h-37l-7 18-3 4h-8l-5-5-1-3 5-15 11-27 12-30 5-10 2-2z" fill="#7E8189"/>
<path transform="translate(621,620)" d="m0 0h20l10 3 9 6 6 7 2 5v6l-5 4h-7l-4-4-7-9-6-3-5-1h-7l-10 3-7 6-5 10-1 4v16l4 13 7 8 11 4h10l13-4 5-5v-7l-1-3-2-1h-14l-6-3-1-2v-6l1-2 3-1h32l3 3 2 6v22l-4 6-8 5-10 4-9 2h-19l-13-4-10-7-6-7-5-10-2-9v-17l3-12 4-8 9-10 12-6z" fill="#7E8189"/>
<path transform="translate(699,621)" d="m0 0h58l2 1v12l-3 1h-45v22h42l3 1v11l-5 2h-40l1 25 47 1 2 2v8l-1 3-6 1h-55l-5-3-1-1v-82l2-3z" fill="#7E8189"/>
<path transform="translate(242,634)" d="m0 0h13l8 3 8 9 3 8 1 17-2 10-6 10-5 4-7 3h-13l-8-4-6-7-4-9-1-4v-17l4-11 7-8z" fill="#FDFDFD"/>
<path transform="translate(529,185)" d="m0 0h7l10 3 8 6 5 8 2 8v8l-4 10-7 8-10 5-9 1-10-2-8-6-6-8-3-10v-7l4-10 7-8 9-5z" fill="#FDFDFD"/>
<path transform="translate(349,620)" d="m0 0h10l3 2 1 3v82l-5 5h-7l-5-4-1-4v-79z" fill="#7E8189"/>
<path transform="translate(531,641)" d="m0 0h2l6 16 6 18-5 1h-21l1-6 10-28z" fill="#FDFDFD"/>
</svg>
